<?xml version="1.0" standalone="no"?><!DOCTYPE svg PUBLIC "-//W3C//DTD SVG 1.1//EN" "http://www.w3.org/Graphics/SVG/1.1/DTD/svg11.dtd"><svg width="1840" height="464" viewBox="0 0 396 100" class="css-1j8o68f" version="1.1" xmlns="http://www.w3.org/2000/svg" xmlns:xlink="http://www.w3.org/1999/xlink" style="block-size:464px;height:464px;inline-size:1840px;perspective-origin:230px 58.0833px;touch-action:none;transform-origin:230px 58.0833px;width:1840px;"><defs id="SvgjsDefs1001" style="block-size:auto;height:auto;inline-size:auto;overflow-block:visible;overflow-inline:visible;overflow-x:visible;overflow-y:visible;perspective-origin:198px 50px;transform-origin:0px 0px;width:auto;"/><g id="SvgjsG1007" featurekey="symbolFeature-0" transform="matrix(31.908105850219727,0,0,31.908105850219727,-29.770264211010954,-29.770264211010954)" fill="#355c7d" style="block-size:auto;fill:rgb(53, 92, 125);height:auto;inline-size:auto;overflow-block:visible;overflow-inline:visible;overflow-x:visible;overflow-y:visible;perspective-origin:198px 50px;touch-action:none;transform-origin:0px 0px;user-select:none;width:auto;"><title xmlns="http://www.w3.org/2000/svg" style="block-size:auto;fill:rgb(53, 92, 125);height:auto;inline-size:auto;overflow-block:visible;overflow-inline:visible;overflow-x:visible;overflow-y:visible;perspective-origin:50% 50%;transform-origin:0px 0px;width:auto;">maze</title><g xmlns="http://www.w3.org/2000/svg" style="block-size:auto;fill:rgb(53, 92, 125);height:auto;inline-size:auto;overflow-block:visible;overflow-inline:visible;overflow-x:visible;overflow-y:visible;perspective-origin:198px 50px;touch-action:none;transform-origin:0px 0px;user-select:none;width:auto;"><polygon points="2.77 1.478 3.325 1.478 3.325 1.285 2.964 1.285 2.964 0.933 2.395 0.933 2.395 1.126 2.77 1.126 2.77 1.478" style="block-size:auto;fill:rgb(53, 92, 125);height:auto;inline-size:auto;overflow-block:visible;overflow-inline:visible;overflow-x:visible;overflow-y:visible;perspective-origin:198px 50px;transform-origin:0px 0px;user-select:none;width:auto;"/><polygon points="2.396 1.93 2.59 1.93 2.59 1.361 2.237 1.361 2.237 1 2.044 1 2.044 1.555 2.396 1.555 2.396 1.93" style="block-size:auto;fill:rgb(53, 92, 125);height:auto;inline-size:auto;overflow-block:visible;overflow-inline:visible;overflow-x:visible;overflow-y:visible;perspective-origin:198px 50px;transform-origin:0px 0px;user-select:none;width:auto;"/><polygon points="3.164 2.205 3.358 2.205 3.358 1.845 3.71 1.845 3.71 1.276 3.516 1.276 3.516 1.651 3.164 1.651 3.164 2.205" style="block-size:auto;fill:rgb(53, 92, 125);height:auto;inline-size:auto;overflow-block:visible;overflow-inline:visible;overflow-x:visible;overflow-y:visible;perspective-origin:198px 50px;transform-origin:0px 0px;user-select:none;width:auto;"/><polygon points="2.763 2.059 2.413 2.059 2.403 2.498 2.597 2.502 2.603 2.253 2.957 2.253 2.957 1.684 2.763 1.684 2.763 2.059" style="block-size:auto;fill:rgb(53, 92, 125);height:auto;inline-size:auto;overflow-block:visible;overflow-inline:visible;overflow-x:visible;overflow-y:visible;perspective-origin:198px 50px;transform-origin:0px 0px;user-select:none;width:auto;"/><polygon points="4.067 2.395 3.874 2.395 3.874 2.77 3.522 2.77 3.522 3.325 3.715 3.325 3.715 2.964 4.067 2.964 4.067 2.395" style="block-size:auto;fill:rgb(53, 92, 125);height:auto;inline-size:auto;overflow-block:visible;overflow-inline:visible;overflow-x:visible;overflow-y:visible;perspective-origin:198px 50px;transform-origin:0px 0px;user-select:none;width:auto;"/><polygon points="3.513 2.396 3.07 2.396 3.07 2.59 3.707 2.59 3.707 2.237 4 2.237 4 2.044 3.513 2.044 3.513 2.396" style="block-size:auto;fill:rgb(53, 92, 125);height:auto;inline-size:auto;overflow-block:visible;overflow-inline:visible;overflow-x:visible;overflow-y:visible;perspective-origin:198px 50px;transform-origin:0px 0px;user-select:none;width:auto;"/><polygon points="3.724 3.71 3.724 3.516 3.349 3.516 3.349 3.083 2.795 3.083 2.795 3.277 3.155 3.277 3.155 3.71 3.724 3.71" style="block-size:auto;fill:rgb(53, 92, 125);height:auto;inline-size:auto;overflow-block:visible;overflow-inline:visible;overflow-x:visible;overflow-y:visible;perspective-origin:198px 50px;transform-origin:0px 0px;user-select:none;width:auto;"/><polygon points="2.747 2.503 2.747 2.942 3.316 2.942 3.316 2.748 2.941 2.748 2.941 2.503 2.747 2.503" style="block-size:auto;fill:rgb(53, 92, 125);height:auto;inline-size:auto;overflow-block:visible;overflow-inline:visible;overflow-x:visible;overflow-y:visible;perspective-origin:198px 50px;transform-origin:0px 0px;user-select:none;width:auto;"/><polygon points="2.605 4.067 2.605 3.874 2.23 3.874 2.23 3.522 1.675 3.522 1.675 3.715 2.036 3.715 2.036 4.067 2.605 4.067" style="block-size:auto;fill:rgb(53, 92, 125);height:auto;inline-size:auto;overflow-block:visible;overflow-inline:visible;overflow-x:visible;overflow-y:visible;perspective-origin:198px 50px;transform-origin:0px 0px;user-select:none;width:auto;"/><polygon points="2.956 4 2.956 3.445 2.604 3.445 2.604 3.07 2.41 3.07 2.41 3.639 2.763 3.639 2.763 4 2.956 4" style="block-size:auto;fill:rgb(53, 92, 125);height:auto;inline-size:auto;overflow-block:visible;overflow-inline:visible;overflow-x:visible;overflow-y:visible;perspective-origin:198px 50px;transform-origin:0px 0px;user-select:none;width:auto;"/><polygon points="1.484 3.349 1.836 3.349 1.836 2.795 1.642 2.795 1.642 3.155 1.29 3.155 1.29 3.724 1.484 3.724 1.484 3.349" style="block-size:auto;fill:rgb(53, 92, 125);height:auto;inline-size:auto;overflow-block:visible;overflow-inline:visible;overflow-x:visible;overflow-y:visible;perspective-origin:198px 50px;transform-origin:0px 0px;user-select:none;width:auto;"/><polygon points="2.043 3.316 2.237 3.316 2.237 2.876 2.6 2.876 2.6 2.682 2.043 2.682 2.043 3.316" style="block-size:auto;fill:rgb(53, 92, 125);height:auto;inline-size:auto;overflow-block:visible;overflow-inline:visible;overflow-x:visible;overflow-y:visible;perspective-origin:198px 50px;transform-origin:0px 0px;user-select:none;width:auto;"/><polygon points="1.126 2.23 1.497 2.23 1.497 1.675 1.304 1.675 1.304 2.036 0.933 2.036 0.933 2.605 1.126 2.605 1.126 2.23" style="block-size:auto;fill:rgb(53, 92, 125);height:auto;inline-size:auto;overflow-block:visible;overflow-inline:visible;overflow-x:visible;overflow-y:visible;perspective-origin:198px 50px;transform-origin:0px 0px;user-select:none;width:auto;"/><polygon points="1.304 2.763 1 2.763 1 2.956 1.497 2.956 1.497 2.604 1.93 2.604 1.93 2.41 1.304 2.41 1.304 2.763" style="block-size:auto;fill:rgb(53, 92, 125);height:auto;inline-size:auto;overflow-block:visible;overflow-inline:visible;overflow-x:visible;overflow-y:visible;perspective-origin:198px 50px;transform-origin:0px 0px;user-select:none;width:auto;"/><polygon points="1.651 1.909 2.205 1.909 2.205 1.716 1.845 1.716 1.845 1.29 1.276 1.29 1.276 1.484 1.651 1.484 1.651 1.909" style="block-size:auto;fill:rgb(53, 92, 125);height:auto;inline-size:auto;overflow-block:visible;overflow-inline:visible;overflow-x:visible;overflow-y:visible;perspective-origin:198px 50px;transform-origin:0px 0px;user-select:none;width:auto;"/><polygon points="1.684 2.237 2.059 2.237 2.059 2.492 2.253 2.492 2.253 2.043 1.684 2.043 1.684 2.237" style="block-size:auto;fill:rgb(53, 92, 125);height:auto;inline-size:auto;overflow-block:visible;overflow-inline:visible;overflow-x:visible;overflow-y:visible;perspective-origin:198px 50px;transform-origin:0px 0px;user-select:none;width:auto;"/></g></g><g id="SvgjsG1008" featurekey="textGroupContainer" transform="matrix(1,0,0,1,395,13)" fill="#355c7d" style="block-size:auto;fill:rgb(53, 92, 125);height:auto;inline-size:auto;overflow-block:visible;overflow-inline:visible;overflow-x:visible;overflow-y:visible;perspective-origin:198px 50px;touch-action:none;transform-origin:0px 0px;user-select:none;width:auto;"><rect xmlns="http://www.w3.org/2000/svg" y="0" height="1" width="1" opacity="0" style="block-size:1px;fill:rgb(53, 92, 125);height:1px;inline-size:1px;opacity:0;overflow-block:visible;overflow-inline:visible;overflow-x:visible;overflow-y:visible;perspective-origin:198px 50px;transform-origin:0px 0px;user-select:none;width:1px;"/><rect xmlns="http://www.w3.org/2000/svg" y="0" x="-275" width="3" height="74" style="block-size:74px;fill:rgb(53, 92, 125);height:74px;inline-size:3px;overflow-block:visible;overflow-inline:visible;overflow-x:visible;overflow-y:visible;perspective-origin:198px 50px;transform-origin:0px 0px;user-select:none;width:3px;x:-275px;"/></g><g id="SvgjsG1009" featurekey="vMvB0T-0" transform="matrix(2.6350457668304443,0,0,2.6350457668304443,135.10144982773133,15.662720066503386)" fill="#355c7d" style="block-size:auto;fill:rgb(53, 92, 125);height:auto;inline-size:auto;overflow-block:visible;overflow-inline:visible;overflow-x:visible;overflow-y:visible;perspective-origin:198px 50px;touch-action:none;transform-origin:0px 0px;user-select:none;width:auto;"><path d="M1.1 19.96 l1.06 -13.6 q0.88 -0.16 2.08 -0.16 t2.1 0.16 l1.18 4.9 q0.7 3.32 0.74 3.62 l0.14 0 q0.08 -0.5 0.74 -3.62 l1.2 -4.9 q0.88 -0.16 2.08 -0.16 t2.1 0.16 l1.06 13.6 q-0.62 0.16 -1.53 0.16 t-1.49 -0.1 l-0.32 -5.56 q-0.14 -3.32 -0.16 -4.62 l-0.12 0 l-1.98 8.14 q-0.72 0.12 -1.65 0.12 t-1.65 -0.12 l-1.96 -8.14 l-0.14 0 q0 1.78 -0.16 4.62 l-0.3 5.56 q-0.58 0.1 -1.49 0.1 t-1.53 -0.16 z M21.5 17.14 q-0.54 0 -0.8 -0.02 l-0.86 2.9 q-0.48 0.12 -1.34 0.12 q-0.96 0 -1.56 -0.22 l-0.1 -0.16 l4.4 -13.42 q0.78 -0.12 1.82 -0.12 q1.18 0 1.88 0.14 l4.32 13.44 q-0.7 0.38 -1.58 0.38 q-1.04 0 -1.46 -0.36 t-0.72 -1.38 l-0.38 -1.32 q-0.26 0.02 -0.78 0.02 l-2.84 0 z M21.44 14.620000000000001 l0.8 -0.02 l1.46 0 q0.1 0 0.35 0.01 t0.37 0.01 l-0.34 -1.24 q-0.48 -1.68 -1.1 -4.12 l-0.12 0 q-0.16 0.86 -0.96 3.82 z M35.72 15.719999999999999 l-1.58 0 l0 4.28 q-0.64 0.12 -1.6 0.12 q-0.98 0 -1.6 -0.12 l0 -13.56 l0.14 -0.14 q1.74 -0.04 2.89 -0.06 t1.75 -0.02 q1.1 0 2.01 0.3 t1.55 0.9 t0.99 1.49 t0.35 2.05 t-0.36 2.05 t-1 1.49 t-1.55 0.91 t-1.99 0.31 z M34.14 8.66 l0 4.66 q0.56 -0.02 0.89 -0.03 t0.43 -0.01 q0.54 0 0.9 -0.19 t0.58 -0.5 t0.32 -0.73 t0.1 -0.88 q0 -0.44 -0.1 -0.86 t-0.31 -0.74 t-0.55 -0.51 t-0.8 -0.19 l-0.82 0 t-0.64 -0.02 z M50.260000000000005 15.96 l-0.02 1.44 l0 0.02 q0.92 -0.04 1.48 -0.04 l4.64 0 q0 0.74 -0.06 1.14 q-0.24 1.54 -2.04 1.54 l-5.32 0 q-0.86 0 -1.35 -0.5 t-0.49 -1.36 l0 -11.72 l0.14 -0.14 l8.62 0 q0.12 0.58 0.12 1.26 t-0.28 1.42 l-5.46 0 l0.02 1.44 l0 1.4 q0.52 -0.02 1.36 -0.02 l3.06 0 q0.18 0.56 0.18 1.28 t-0.18 1.32 l-4.42 0 l0 1.52 z M61.900000000000006 17.14 q-0.54 0 -0.8 -0.02 l-0.86 2.9 q-0.48 0.12 -1.34 0.12 q-0.96 0 -1.56 -0.22 l-0.1 -0.16 l4.4 -13.42 q0.78 -0.12 1.82 -0.12 q1.18 0 1.88 0.14 l4.32 13.44 q-0.7 0.38 -1.58 0.38 q-1.04 0 -1.46 -0.36 t-0.72 -1.38 l-0.38 -1.32 q-0.26 0.02 -0.78 0.02 l-2.84 0 z M61.84 14.620000000000001 l0.8 -0.02 l1.46 0 q0.1 0 0.35 0.01 t0.37 0.01 l-0.34 -1.24 q-0.48 -1.68 -1.1 -4.12 l-0.12 0 q-0.16 0.86 -0.96 3.82 z M70.96000000000001 16.9 l4.44 -6.1 q0.68 -0.98 1.62 -1.98 l-0.06 -0.06 q-1.42 0.18 -3.1 0.18 l-2.86 0 q-0.12 -0.46 -0.12 -1.11 t0.22 -1.49 l8.86 0 q0.44 1.66 0.44 2.11 t-0.36 0.97 l-4.46 6.12 q-0.68 0.96 -1.56 1.88 l0.06 0.06 q2 -0.14 3 -0.14 l1.12 0 q1.2 0 2.24 -0.46 q0.22 0.7 0.22 1.48 t-0.57 1.21 t-1.53 0.43 l-7.64 0 q-0.36 -1.6 -0.36 -2.07 t0.4 -1.03 z M86.08 15.96 l-0.02 1.44 l0 0.02 q0.92 -0.04 1.48 -0.04 l4.64 0 q0 0.74 -0.06 1.14 q-0.24 1.54 -2.04 1.54 l-5.32 0 q-0.86 0 -1.35 -0.5 t-0.49 -1.36 l0 -11.72 l0.14 -0.14 l8.62 0 q0.12 0.58 0.12 1.26 t-0.28 1.42 l-5.46 0 l0.02 1.44 l0 1.4 q0.52 -0.02 1.36 -0.02 l3.06 0 q0.18 0.56 0.18 1.28 t-0.18 1.32 l-4.42 0 l0 1.52 z" style="block-size:auto;d:path(&quot;M 1.1 19.96 l 1.06 -13.6 q 0.88 -0.16 2.08 -0.16 t 2.1 0.16 l 1.18 4.9 q 0.7 3.32 0.74 3.62 l 0.14 0 q 0.08 -0.5 0.74 -3.62 l 1.2 -4.9 q 0.88 -0.16 2.08 -0.16 t 2.1 0.16 l 1.06 13.6 q -0.62 0.16 -1.53 0.16 t -1.49 -0.1 l -0.32 -5.56 q -0.14 -3.32 -0.16 -4.62 l -0.12 0 l -1.98 8.14 q -0.72 0.12 -1.65 0.12 t -1.65 -0.12 l -1.96 -8.14 l -0.14 0 q 0 1.78 -0.16 4.62 l -0.3 5.56 q -0.58 0.1 -1.49 0.1 t -1.53 -0.16 Z M 21.5 17.14 q -0.54 0 -0.8 -0.02 l -0.86 2.9 q -0.48 0.12 -1.34 0.12 q -0.96 0 -1.56 -0.22 l -0.1 -0.16 l 4.4 -13.42 q 0.78 -0.12 1.82 -0.12 q 1.18 0 1.88 0.14 l 4.32 13.44 q -0.7 0.38 -1.58 0.38 q -1.04 0 -1.46 -0.36 t -0.72 -1.38 l -0.38 -1.32 q -0.26 0.02 -0.78 0.02 l -2.84 0 Z M 21.44 14.62 l 0.8 -0.02 l 1.46 0 q 0.1 0 0.35 0.01 t 0.37 0.01 l -0.34 -1.24 q -0.48 -1.68 -1.1 -4.12 l -0.12 0 q -0.16 0.86 -0.96 3.82 Z M 35.72 15.72 l -1.58 0 l 0 4.28 q -0.64 0.12 -1.6 0.12 q -0.98 0 -1.6 -0.12 l 0 -13.56 l 0.14 -0.14 q 1.74 -0.04 2.89 -0.06 t 1.75 -0.02 q 1.1 0 2.01 0.3 t 1.55 0.9 t 0.99 1.49 t 0.35 2.05 t -0.36 2.05 t -1 1.49 t -1.55 0.91 t -1.99 0.31 Z M 34.14 8.66 l 0 4.66 q 0.56 -0.02 0.89 -0.03 t 0.43 -0.01 q 0.54 0 0.9 -0.19 t 0.58 -0.5 t 0.32 -0.73 t 0.1 -0.88 q 0 -0.44 -0.1 -0.86 t -0.31 -0.74 t -0.55 -0.51 t -0.8 -0.19 l -0.82 0 t -0.64 -0.02 Z M 50.26 15.96 l -0.02 1.44 l 0 0.02 q 0.92 -0.04 1.48 -0.04 l 4.64 0 q 0 0.74 -0.06 1.14 q -0.24 1.54 -2.04 1.54 l -5.32 0 q -0.86 0 -1.35 -0.5 t -0.49 -1.36 l 0 -11.72 l 0.14 -0.14 l 8.62 0 q 0.12 0.58 0.12 1.26 t -0.28 1.42 l -5.46 0 l 0.02 1.44 l 0 1.4 q 0.52 -0.02 1.36 -0.02 l 3.06 0 q 0.18 0.56 0.18 1.28 t -0.18 1.32 l -4.42 0 l 0 1.52 Z M 61.9 17.14 q -0.54 0 -0.8 -0.02 l -0.86 2.9 q -0.48 0.12 -1.34 0.12 q -0.96 0 -1.56 -0.22 l -0.1 -0.16 l 4.4 -13.42 q 0.78 -0.12 1.82 -0.12 q 1.18 0 1.88 0.14 l 4.32 13.44 q -0.7 0.38 -1.58 0.38 q -1.04 0 -1.46 -0.36 t -0.72 -1.38 l -0.38 -1.32 q -0.26 0.02 -0.78 0.02 l -2.84 0 Z M 61.84 14.62 l 0.8 -0.02 l 1.46 0 q 0.1 0 0.35 0.01 t 0.37 0.01 l -0.34 -1.24 q -0.48 -1.68 -1.1 -4.12 l -0.12 0 q -0.16 0.86 -0.96 3.82 Z M 70.96 16.9 l 4.44 -6.1 q 0.68 -0.98 1.62 -1.98 l -0.06 -0.06 q -1.42 0.18 -3.1 0.18 l -2.86 0 q -0.12 -0.46 -0.12 -1.11 t 0.22 -1.49 l 8.86 0 q 0.44 1.66 0.44 2.11 t -0.36 0.97 l -4.46 6.12 q -0.68 0.96 -1.56 1.88 l 0.06 0.06 q 2 -0.14 3 -0.14 l 1.12 0 q 1.2 0 2.24 -0.46 q 0.22 0.7 0.22 1.48 t -0.57 1.21 t -1.53 0.43 l -7.64 0 q -0.36 -1.6 -0.36 -2.07 t 0.4 -1.03 Z M 86.08 15.96 l -0.02 1.44 l 0 0.02 q 0.92 -0.04 1.48 -0.04 l 4.64 0 q 0 0.74 -0.06 1.14 q -0.24 1.54 -2.04 1.54 l -5.32 0 q -0.86 0 -1.35 -0.5 t -0.49 -1.36 l 0 -11.72 l 0.14 -0.14 l 8.62 0 q 0.12 0.58 0.12 1.26 t -0.28 1.42 l -5.46 0 l 0.02 1.44 l 0 1.4 q 0.52 -0.02 1.36 -0.02 l 3.06 0 q 0.18 0.56 0.18 1.28 t -0.18 1.32 l -4.42 0 l 0 1.52 Z&quot;);fill:rgb(53, 92, 125);height:auto;inline-size:auto;overflow-block:visible;overflow-inline:visible;overflow-x:visible;overflow-y:visible;perspective-origin:198px 50px;transform-origin:0px 0px;user-select:none;width:auto;"/></g></svg>