<?xml version="1.0" encoding="UTF-8"?>
<svg xmlns="http://www.w3.org/2000/svg" xmlns:xlink="http://www.w3.org/1999/xlink" width="175px" height="44px" viewBox="0 0 174 44" version="1.1">
<g id="surface1">
<path style=" stroke:none;fill-rule:nonzero;fill:rgb(20.784314%,36.078432%,49.019608%);fill-opacity:1;" d="M 25.839844 7.652344 L 33.609375 7.652344 L 33.609375 4.941406 L 28.554688 4.941406 L 28.554688 0 L 20.589844 0 L 20.589844 2.710938 L 25.839844 2.710938 Z M 25.839844 7.652344 "/>
<path style=" stroke:none;fill-rule:nonzero;fill:rgb(20.784314%,36.078432%,49.019608%);fill-opacity:1;" d="M 20.605469 13.996094 L 23.320312 13.996094 L 23.320312 6.007812 L 18.378906 6.007812 L 18.378906 0.941406 L 15.675781 0.941406 L 15.675781 8.734375 L 20.605469 8.734375 Z M 20.605469 13.996094 "/>
<path style=" stroke:none;fill-rule:nonzero;fill:rgb(20.784314%,36.078432%,49.019608%);fill-opacity:1;" d="M 31.355469 17.859375 L 34.074219 17.859375 L 34.074219 12.804688 L 39 12.804688 L 39 4.816406 L 36.285156 4.816406 L 36.285156 10.082031 L 31.355469 10.082031 Z M 31.355469 17.859375 "/>
<path style=" stroke:none;fill-rule:nonzero;fill:rgb(20.784314%,36.078432%,49.019608%);fill-opacity:1;" d="M 25.742188 15.808594 L 20.84375 15.808594 L 20.703125 21.972656 L 23.417969 22.027344 L 23.503906 18.53125 L 28.457031 18.53125 L 28.457031 10.542969 L 25.742188 10.542969 Z M 25.742188 15.808594 "/>
<path style=" stroke:none;fill-rule:nonzero;fill:rgb(20.784314%,36.078432%,49.019608%);fill-opacity:1;" d="M 44 20.527344 L 41.296875 20.527344 L 41.296875 25.789062 L 36.367188 25.789062 L 36.367188 33.582031 L 39.070312 33.582031 L 39.070312 28.515625 L 44 28.515625 Z M 44 20.527344 "/>
<path style=" stroke:none;fill-rule:nonzero;fill:rgb(20.784314%,36.078432%,49.019608%);fill-opacity:1;" d="M 36.242188 20.539062 L 30.039062 20.539062 L 30.039062 23.261719 L 38.960938 23.261719 L 38.960938 18.308594 L 43.0625 18.308594 L 43.0625 15.597656 L 36.242188 15.597656 Z M 36.242188 20.539062 "/>
<path style=" stroke:none;fill-rule:nonzero;fill:rgb(20.784314%,36.078432%,49.019608%);fill-opacity:1;" d="M 39.195312 38.988281 L 39.195312 36.265625 L 33.945312 36.265625 L 33.945312 30.183594 L 26.191406 30.183594 L 26.191406 32.910156 L 31.230469 32.910156 L 31.230469 38.988281 Z M 39.195312 38.988281 "/>
<path style=" stroke:none;fill-rule:nonzero;fill:rgb(20.784314%,36.078432%,49.019608%);fill-opacity:1;" d="M 25.519531 22.042969 L 25.519531 28.207031 L 33.484375 28.207031 L 33.484375 25.480469 L 28.234375 25.480469 L 28.234375 22.042969 Z M 25.519531 22.042969 "/>
<path style=" stroke:none;fill-rule:nonzero;fill:rgb(20.784314%,36.078432%,49.019608%);fill-opacity:1;" d="M 23.53125 44 L 23.53125 41.289062 L 18.28125 41.289062 L 18.28125 36.347656 L 10.507812 36.347656 L 10.507812 39.058594 L 15.5625 39.058594 L 15.5625 44 Z M 23.53125 44 "/>
<path style=" stroke:none;fill-rule:nonzero;fill:rgb(20.784314%,36.078432%,49.019608%);fill-opacity:1;" d="M 28.445312 43.058594 L 28.445312 35.265625 L 23.515625 35.265625 L 23.515625 30.003906 L 20.800781 30.003906 L 20.800781 37.992188 L 25.742188 37.992188 L 25.742188 43.058594 Z M 28.445312 43.058594 "/>
<path style=" stroke:none;fill-rule:nonzero;fill:rgb(20.784314%,36.078432%,49.019608%);fill-opacity:1;" d="M 7.835938 33.917969 L 12.765625 33.917969 L 12.765625 26.140625 L 10.046875 26.140625 L 10.046875 31.195312 L 5.121094 31.195312 L 5.121094 39.183594 L 7.835938 39.183594 Z M 7.835938 33.917969 "/>
<path style=" stroke:none;fill-rule:nonzero;fill:rgb(20.784314%,36.078432%,49.019608%);fill-opacity:1;" d="M 15.660156 33.457031 L 18.378906 33.457031 L 18.378906 27.277344 L 23.460938 27.277344 L 23.460938 24.554688 L 15.660156 24.554688 Z M 15.660156 33.457031 "/>
<path style=" stroke:none;fill-rule:nonzero;fill:rgb(20.784314%,36.078432%,49.019608%);fill-opacity:1;" d="M 2.824219 18.210938 L 8.015625 18.210938 L 8.015625 10.417969 L 5.316406 10.417969 L 5.316406 15.484375 L 0.121094 15.484375 L 0.121094 23.472656 L 2.824219 23.472656 Z M 2.824219 18.210938 "/>
<path style=" stroke:none;fill-rule:nonzero;fill:rgb(20.784314%,36.078432%,49.019608%);fill-opacity:1;" d="M 5.316406 25.691406 L 1.058594 25.691406 L 1.058594 28.402344 L 8.015625 28.402344 L 8.015625 23.460938 L 14.078125 23.460938 L 14.078125 20.738281 L 5.316406 20.738281 Z M 5.316406 25.691406 "/>
<path style=" stroke:none;fill-rule:nonzero;fill:rgb(20.784314%,36.078432%,49.019608%);fill-opacity:1;" d="M 10.171875 13.703125 L 17.929688 13.703125 L 17.929688 10.992188 L 12.890625 10.992188 L 12.890625 5.011719 L 4.921875 5.011719 L 4.921875 7.734375 L 10.171875 7.734375 Z M 10.171875 13.703125 "/>
<path style=" stroke:none;fill-rule:nonzero;fill:rgb(20.784314%,36.078432%,49.019608%);fill-opacity:1;" d="M 10.636719 18.308594 L 15.886719 18.308594 L 15.886719 21.886719 L 18.601562 21.886719 L 18.601562 15.582031 L 10.636719 15.582031 Z M 10.636719 18.308594 "/>
<path style=" stroke:none;fill-rule:nonzero;fill:rgb(20.784314%,36.078432%,49.019608%);fill-opacity:1;" d="M 52.773438 5.71875 L 54.089844 5.71875 L 54.089844 38.28125 L 52.773438 38.28125 Z M 52.773438 5.71875 "/>
<path style=" stroke:none;fill-rule:nonzero;fill:rgb(20.784314%,36.078432%,49.019608%);fill-opacity:1;" d="M 60.671875 30.035156 L 61.898438 14.265625 C 62.578125 14.140625 63.378906 14.078125 64.304688 14.078125 C 65.230469 14.078125 66.039062 14.140625 66.730469 14.265625 L 68.097656 19.945312 C 68.636719 22.511719 68.921875 23.910156 68.953125 24.144531 L 69.113281 24.144531 C 69.175781 23.757812 69.460938 22.359375 69.96875 19.945312 L 71.355469 14.265625 C 72.035156 14.140625 72.835938 14.078125 73.761719 14.078125 C 74.6875 14.078125 75.496094 14.140625 76.1875 14.265625 L 77.414062 30.035156 C 76.9375 30.15625 76.347656 30.21875 75.644531 30.21875 C 74.945312 30.21875 74.371094 30.179688 73.921875 30.101562 L 73.554688 23.65625 C 73.445312 21.089844 73.382812 19.304688 73.367188 18.300781 L 73.230469 18.300781 L 70.941406 27.738281 C 70.386719 27.832031 69.75 27.878906 69.03125 27.878906 C 68.316406 27.878906 67.679688 27.832031 67.125 27.738281 L 64.859375 18.300781 L 64.695312 18.300781 C 64.695312 19.675781 64.636719 21.460938 64.511719 23.65625 L 64.164062 30.101562 C 63.71875 30.179688 63.144531 30.21875 62.441406 30.21875 C 61.742188 30.21875 61.152344 30.15625 60.671875 30.035156 Z M 84.261719 26.765625 C 83.84375 26.765625 83.535156 26.757812 83.335938 26.742188 L 82.339844 30.101562 C 81.96875 30.195312 81.453125 30.242188 80.792969 30.242188 C 80.050781 30.242188 79.449219 30.15625 78.988281 29.988281 L 78.871094 29.800781 L 83.960938 14.242188 C 84.558594 14.148438 85.261719 14.101562 86.0625 14.101562 C 86.972656 14.101562 87.699219 14.15625 88.238281 14.265625 L 93.230469 29.847656 C 92.691406 30.140625 92.082031 30.289062 91.40625 30.289062 C 90.605469 30.289062 90.039062 30.148438 89.71875 29.871094 C 89.394531 29.59375 89.117188 29.058594 88.882812 28.269531 L 88.445312 26.742188 C 88.246094 26.757812 87.945312 26.765625 87.542969 26.765625 Z M 84.191406 23.84375 L 85.117188 23.820312 L 86.804688 23.820312 C 86.878906 23.820312 87.015625 23.824219 87.207031 23.832031 C 87.402344 23.839844 87.542969 23.84375 87.636719 23.84375 L 87.242188 22.40625 C 86.871094 21.105469 86.449219 19.515625 85.972656 17.628906 L 85.832031 17.628906 C 85.707031 18.292969 85.339844 19.769531 84.722656 22.058594 Z M 100.699219 25.117188 L 98.875 25.117188 L 98.875 30.078125 C 98.382812 30.171875 97.765625 30.21875 97.023438 30.21875 C 96.269531 30.21875 95.652344 30.171875 95.175781 30.078125 L 95.175781 14.359375 L 95.335938 14.195312 C 96.675781 14.164062 97.792969 14.140625 98.679688 14.125 C 99.5625 14.109375 100.238281 14.101562 100.699219 14.101562 C 101.550781 14.101562 102.324219 14.21875 103.023438 14.449219 C 103.726562 14.683594 104.324219 15.03125 104.816406 15.496094 C 105.3125 15.957031 105.691406 16.535156 105.960938 17.222656 C 106.230469 17.910156 106.367188 18.703125 106.367188 19.597656 C 106.367188 20.496094 106.226562 21.289062 105.949219 21.976562 C 105.671875 22.664062 105.289062 23.238281 104.792969 23.703125 C 104.300781 24.167969 103.703125 24.519531 103.003906 24.757812 C 102.300781 24.996094 101.535156 25.117188 100.699219 25.117188 Z M 98.875 16.933594 L 98.875 22.335938 C 99.304688 22.320312 99.648438 22.308594 99.902344 22.300781 C 100.15625 22.292969 100.324219 22.289062 100.402344 22.289062 C 100.816406 22.289062 101.164062 22.214844 101.441406 22.070312 C 101.71875 21.921875 101.941406 21.726562 102.113281 21.488281 C 102.28125 21.25 102.40625 20.96875 102.480469 20.640625 C 102.558594 20.316406 102.597656 19.976562 102.597656 19.621094 C 102.597656 19.28125 102.558594 18.949219 102.480469 18.625 C 102.40625 18.300781 102.285156 18.015625 102.125 17.765625 C 101.960938 17.519531 101.75 17.324219 101.488281 17.175781 C 101.226562 17.027344 100.917969 16.957031 100.5625 16.957031 L 99.613281 16.957031 C 99.613281 16.957031 99.367188 16.949219 98.875 16.933594 Z M 117.511719 25.394531 L 117.488281 27.066406 L 117.488281 27.089844 C 118.199219 27.058594 118.769531 27.042969 119.199219 27.042969 L 124.566406 27.042969 C 124.566406 27.613281 124.542969 28.054688 124.496094 28.363281 C 124.3125 29.554688 123.523438 30.148438 122.136719 30.148438 L 115.984375 30.148438 C 115.324219 30.148438 114.804688 29.957031 114.425781 29.570312 C 114.046875 29.183594 113.859375 28.65625 113.859375 27.992188 L 113.859375 14.40625 L 114.019531 14.242188 L 123.988281 14.242188 C 124.078125 14.691406 124.125 15.175781 124.125 15.703125 C 124.125 16.230469 124.019531 16.777344 123.800781 17.347656 L 117.488281 17.347656 L 117.511719 19.019531 L 117.511719 20.640625 C 117.914062 20.625 118.4375 20.617188 119.085938 20.617188 L 122.621094 20.617188 C 122.761719 21.050781 122.832031 21.546875 122.832031 22.101562 C 122.832031 22.660156 122.761719 23.167969 122.621094 23.632812 L 117.511719 23.632812 Z M 130.972656 26.765625 C 130.554688 26.765625 130.246094 26.757812 130.046875 26.742188 L 129.050781 30.101562 C 128.679688 30.195312 128.164062 30.242188 127.503906 30.242188 C 126.761719 30.242188 126.160156 30.15625 125.699219 29.988281 L 125.582031 29.800781 L 130.671875 14.242188 C 131.269531 14.148438 131.972656 14.101562 132.773438 14.101562 C 133.683594 14.101562 134.410156 14.15625 134.949219 14.265625 L 139.941406 29.847656 C 139.402344 30.140625 138.792969 30.289062 138.117188 30.289062 C 137.316406 30.289062 136.75 30.148438 136.429688 29.871094 C 136.105469 29.59375 135.828125 29.058594 135.59375 28.269531 L 135.15625 26.742188 C 134.957031 26.757812 134.65625 26.765625 134.253906 26.765625 Z M 130.902344 23.84375 L 131.828125 23.820312 L 133.515625 23.820312 C 133.589844 23.820312 133.726562 23.824219 133.917969 23.832031 C 134.113281 23.839844 134.253906 23.84375 134.347656 23.84375 L 133.953125 22.40625 C 133.582031 21.105469 133.160156 19.515625 132.683594 17.628906 L 132.542969 17.628906 C 132.417969 18.292969 132.050781 19.769531 131.433594 22.058594 Z M 141.445312 26.484375 L 146.578125 19.414062 C 147.105469 18.65625 147.726562 17.890625 148.453125 17.117188 L 148.382812 17.046875 C 147.289062 17.1875 146.09375 17.257812 144.800781 17.257812 L 141.492188 17.257812 C 141.398438 16.902344 141.355469 16.472656 141.355469 15.96875 C 141.355469 15.46875 141.4375 14.890625 141.609375 14.242188 L 151.851562 14.242188 C 152.191406 15.527344 152.359375 16.339844 152.359375 16.6875 C 152.359375 17.035156 152.222656 17.410156 151.945312 17.8125 L 146.789062 24.910156 C 146.261719 25.652344 145.664062 26.378906 144.984375 27.089844 L 145.054688 27.160156 C 146.59375 27.050781 147.75 26.996094 148.523438 26.996094 L 149.816406 26.996094 C 150.742188 26.996094 151.605469 26.816406 152.40625 26.460938 C 152.578125 27.003906 152.660156 27.574219 152.660156 28.179688 C 152.660156 28.78125 152.441406 29.25 152.003906 29.582031 C 151.5625 29.914062 150.972656 30.078125 150.234375 30.078125 L 141.398438 30.078125 C 141.121094 28.84375 140.984375 28.042969 140.984375 27.679688 C 140.984375 27.316406 141.136719 26.917969 141.445312 26.484375 Z M 158.929688 25.394531 L 158.90625 27.066406 L 158.90625 27.089844 C 159.613281 27.058594 160.183594 27.042969 160.617188 27.042969 L 165.980469 27.042969 C 165.980469 27.613281 165.957031 28.054688 165.910156 28.363281 C 165.726562 29.554688 164.941406 30.148438 163.554688 30.148438 L 157.402344 30.148438 C 156.738281 30.148438 156.21875 29.957031 155.839844 29.570312 C 155.464844 29.183594 155.273438 28.65625 155.273438 27.992188 L 155.273438 14.40625 L 155.4375 14.242188 L 165.402344 14.242188 C 165.496094 14.691406 165.542969 15.175781 165.542969 15.703125 C 165.542969 16.230469 165.433594 16.777344 165.21875 17.347656 L 158.90625 17.347656 L 158.929688 19.019531 L 158.929688 20.640625 C 159.328125 20.625 159.851562 20.617188 160.5 20.617188 L 164.039062 20.617188 C 164.175781 21.050781 164.246094 21.546875 164.246094 22.101562 C 164.246094 22.660156 164.175781 23.167969 164.039062 23.632812 L 158.929688 23.632812 Z M 158.929688 25.394531 "/>
</g>
</svg>
